<svg width="18" height="18" viewBox="0 0 18 18" fill="none" xmlns="http://www.w3.org/2000/svg">
<path d="M13.5 6C14.3284 6 15 5.32843 15 4.5C15 3.67157 14.3284 3 13.5 3C12.6716 3 12 3.67157 12 4.5C12 5.32843 12.6716 6 13.5 6Z" fill="white"/>
<path d="M9 5C8.20888 5 7.43552 5.2346 6.77772 5.67412C6.11992 6.11365 5.60723 6.73836 5.30448 7.46927C5.00173 8.20017 4.92252 9.00444 5.07686 9.78036C5.2312 10.5563 5.61216 11.269 6.17157 11.8284C6.73098 12.3878 7.44372 12.7688 8.21964 12.9231C8.99556 13.0775 9.79983 12.9983 10.5307 12.6955C11.2616 12.3928 11.8864 11.8801 12.3259 11.2223C12.7654 10.5645 13 9.79112 13 9C13 7.93913 12.5786 6.92172 11.8284 6.17157C11.0783 5.42143 10.0609 5 9 5ZM9 11C8.60444 11 8.21776 10.8827 7.88886 10.6629C7.55996 10.4432 7.30362 10.1308 7.15224 9.76537C7.00087 9.39991 6.96126 8.99778 7.03843 8.60982C7.1156 8.22186 7.30608 7.86549 7.58579 7.58579C7.86549 7.30608 8.22186 7.1156 8.60982 7.03843C8.99778 6.96126 9.39992 7.00086 9.76537 7.15224C10.1308 7.30362 10.4432 7.55996 10.6629 7.88886C10.8827 8.21776 11 8.60444 11 9C11 9.53043 10.7893 10.0391 10.4142 10.4142C10.0391 10.7893 9.53043 11 9 11Z" fill="white"/>
<path fill-rule="evenodd" clip-rule="evenodd" d="M4 1.75C2.75736 1.75 1.75 2.75736 1.75 4V14C1.75 15.2426 2.75736 16.25 4 16.25H14C15.2426 16.25 16.25 15.2426 16.25 14V4C16.25 2.75736 15.2426 1.75 14 1.75H4ZM0.25 4C0.25 1.92893 1.92893 0.25 4 0.25H14C16.0711 0.25 17.75 1.92893 17.75 4V14C17.75 16.0711 16.0711 17.75 14 17.75H4C1.92893 17.75 0.25 16.0711 0.25 14V4Z" fill="white"/>
</svg>
