<svg width="16" height="22" viewBox="0 0 16 22" fill="none" xmlns="http://www.w3.org/2000/svg">
<path d="M11.1735 5.53989L7.99345 2.35989L4.81345 5.53989L3.97345 4.69989L7.99345 0.679886L12.0135 4.69989L11.1735 5.53989Z" fill="white"/>
<path d="M7.39532 1.52022H8.59532V14.1202H7.39532V1.52022Z" fill="white"/>
<path d="M14 21.3201H2.00001C0.980012 21.3201 0.200012 20.5401 0.200012 19.5201V8.72012C0.200012 7.70012 0.980012 6.92012 2.00001 6.92012H6.20001V8.12012H2.00001C1.64001 8.12012 1.40001 8.36012 1.40001 8.72012V19.5201C1.40001 19.8801 1.64001 20.1201 2.00001 20.1201H14C14.36 20.1201 14.6 19.8801 14.6 19.5201V8.72012C14.6 8.36012 14.36 8.12012 14 8.12012H9.80001V6.92012H14C15.02 6.92012 15.8 7.70012 15.8 8.72012V19.5201C15.8 20.5401 15.02 21.3201 14 21.3201Z" fill="white"/>
</svg>
