<svg width="20" height="14" viewBox="0 0 20 14" fill="none" xmlns="http://www.w3.org/2000/svg">
<path d="M10.4431 13.9817L6.33986 13.9057C5.01133 13.8793 3.67949 13.9321 2.37701 13.6579C0.395628 13.2483 0.25526 11.2399 0.10838 9.55526C-0.0940059 7.18684 -0.0156563 4.77543 0.366272 2.42677C0.581883 1.10893 1.4304 0.322568 2.7426 0.236997C7.17225 -0.0735544 11.6314 -0.0367508 16.0512 0.108133C16.518 0.121414 16.988 0.194008 17.4482 0.276639C19.7203 0.679657 19.7757 2.95561 19.923 4.87154C20.0698 6.80724 20.0078 8.75288 19.7271 10.6754C19.5019 12.2672 19.0709 13.6021 17.2524 13.7309C14.9738 13.8994 12.7476 14.0351 10.4626 13.9919C10.4627 13.9817 10.4496 13.9817 10.4431 13.9817ZM8.03079 9.95169C9.74786 8.95403 11.4322 7.973 13.1394 6.98204C11.4191 5.98438 9.73804 5.00335 8.03079 4.01238V9.95169Z" fill="white"/>
</svg>
